<svg width="512" height="512" viewBox="0 0 512 512" fill="none" xmlns="http://www.w3.org/2000/svg">
  <!-- Dark Background -->
  <rect width="512" height="512" rx="100" fill="#09090B"/>
  
  <!-- Outer Glow -->
  <circle cx="256" cy="256" r="140" fill="#C084FC" filter="blur(120px)" opacity="0.35"/>
  <circle cx="256" cy="256" r="80" fill="#F472B6" filter="blur(80px)" opacity="0.25"/>
  
  <!-- "I" -->
  <rect x="176" y="144" width="32" height="224" rx="16" fill="url(#monogram_grad_1)"/>
  
  <!-- "B" -->
  <path d="M232 144H320C355.346 144 384 172.654 384 208C384 233.167 369.458 254.918 348.65 265.558C374.881 275.64 394 300.911 394 330C394 369.764 361.764 402 322 402H232V144Z" stroke="url(#monogram_grad_2)" stroke-width="28" stroke-linejoin="round" stroke-linecap="round"/>
  
  <!-- Middle line for "B" -->
  <path d="M232 268H320" stroke="url(#monogram_grad_2)" stroke-width="28" stroke-linecap="round"/>
  
  <!-- Connection Dot / Spark -->
  <circle cx="192" cy="112" r="16" fill="url(#monogram_grad_1)"/>
  <circle cx="232" cy="112" r="16" fill="url(#monogram_grad_2)"/>
  
  <defs>
    <linearGradient id="monogram_grad_1" x1="176" y1="112" x2="208" y2="368" gradientUnits="userSpaceOnUse">
      <stop stop-color="#818CF8"/>
      <stop offset="1" stop-color="#C084FC"/>
    </linearGradient>
    <linearGradient id="monogram_grad_2" x1="232" y1="144" x2="394" y2="402" gradientUnits="userSpaceOnUse">
      <stop stop-color="#C084FC"/>
      <stop offset="1" stop-color="#F472B6"/>
    </linearGradient>
  </defs>
</svg>
