<svg width="512" height="512" viewBox="0 0 512 512" fill="none" xmlns="http://www.w3.org/2000/svg">
  <!-- Dark Background -->
  <rect width="512" height="512" rx="100" fill="#09090B"/>
  
  <!-- Outer Glow -->
  <circle cx="256" cy="256" r="160" fill="#C084FC" filter="blur(100px)" opacity="0.3"/>
  <circle cx="256" cy="256" r="100" fill="#818CF8" filter="blur(60px)" opacity="0.4"/>
  
  <!-- 6-Layer Hexagon Base -->
  <path d="M256 120L364 182V306L256 368L148 306V182L256 120Z" stroke="url(#prism_grad_1)" stroke-width="24" stroke-linejoin="round"/>
  
  <!-- Inner Layers / Nodes -->
  <path d="M256 182L310 213V275L256 306L202 275V213L256 182Z" stroke="url(#prism_grad_2)" stroke-width="16" stroke-linejoin="round"/>
  
  <circle cx="256" cy="244" r="28" fill="url(#prism_grad_3)"/>
  
  <!-- Connecting Lines -->
  <path d="M256 120V182" stroke="url(#prism_grad_1)" stroke-width="12" stroke-linecap="round"/>
  <path d="M256 306V368" stroke="url(#prism_grad_1)" stroke-width="12" stroke-linecap="round"/>
  <path d="M148 182L202 213" stroke="url(#prism_grad_1)" stroke-width="12" stroke-linecap="round"/>
  <path d="M364 182L310 213" stroke="url(#prism_grad_1)" stroke-width="12" stroke-linecap="round"/>
  <path d="M148 306L202 275" stroke="url(#prism_grad_1)" stroke-width="12" stroke-linecap="round"/>
  <path d="M364 306L310 275" stroke="url(#prism_grad_1)" stroke-width="12" stroke-linecap="round"/>
  
  <!-- Gradients -->
  <defs>
    <linearGradient id="prism_grad_1" x1="148" y1="120" x2="364" y2="368" gradientUnits="userSpaceOnUse">
      <stop stop-color="#818CF8"/>
      <stop offset="0.5" stop-color="#C084FC"/>
      <stop offset="1" stop-color="#F472B6"/>
    </linearGradient>
    <linearGradient id="prism_grad_2" x1="202" y1="182" x2="310" y2="306" gradientUnits="userSpaceOnUse">
      <stop stop-color="#C084FC"/>
      <stop offset="1" stop-color="#F472B6"/>
    </linearGradient>
    <linearGradient id="prism_grad_3" x1="228" y1="216" x2="284" y2="272" gradientUnits="userSpaceOnUse">
      <stop stop-color="#818CF8"/>
      <stop offset="1" stop-color="#C084FC"/>
    </linearGradient>
  </defs>
</svg>
